<svg width="50" height="48" viewBox="0 0 50 48" fill="none" xmlns="http://www.w3.org/2000/svg">
<path fill-rule="evenodd" clip-rule="evenodd" d="M50 47.9166H40V30.4191C40 25.6191 37.8825 22.941 34.085 22.941C29.9525 22.941 27.5 25.7316 27.5 30.4191V47.9166H17.5V15.4166H27.5V19.0714C27.5 19.0714 30.6375 13.566 37.7075 13.566C44.78 13.566 50 17.8819 50 26.8119V47.9166ZM6.105 10.2189C2.7325 10.2189 0 7.46403 0 4.06653C0 0.671528 2.7325 -2.08337 6.105 -2.08337C9.475 -2.08337 12.2075 0.671528 12.2075 4.06653C12.21 7.46403 9.475 10.2189 6.105 10.2189ZM0 47.9166H12.5V15.4166H0V47.9166Z" fill="white"/>
</svg>
