<svg width="40" height="40" viewBox="0 0 40 40" fill="none" xmlns="http://www.w3.org/2000/svg">
<mask id="path-1-inside-1_21_2" fill="white">
<path d="M40 20C40 23.9556 38.827 27.8224 36.6294 31.1114C34.4318 34.4004 31.3082 36.9638 27.6537 38.4776C23.9991 39.9913 19.9778 40.3874 16.0982 39.6157C12.2186 38.844 8.65491 36.9392 5.85786 34.1421C3.06081 31.3451 1.156 27.7814 0.384294 23.9018C-0.38741 20.0222 0.00865672 16.0009 1.52241 12.3463C3.03616 8.69181 5.59961 5.56824 8.8886 3.37061C12.1776 1.17298 16.0444 -4.71704e-08 20 0L20 3.37385C16.7117 3.37385 13.4972 4.34896 10.763 6.17586C8.02885 8.00277 5.89784 10.5994 4.63944 13.6374C3.38105 16.6755 3.0518 20.0184 3.69332 23.2436C4.33484 26.4688 5.91833 29.4313 8.24354 31.7565C10.5687 34.0817 13.5312 35.6652 16.7564 36.3067C19.9816 36.9482 23.3245 36.6189 26.3626 35.3606C29.4006 34.1022 31.9972 31.9711 33.8241 29.237C35.651 26.5028 36.6261 23.2883 36.6261 20H40Z"/>
</mask>
<path d="M40 20C40 23.9556 38.827 27.8224 36.6294 31.1114C34.4318 34.4004 31.3082 36.9638 27.6537 38.4776C23.9991 39.9913 19.9778 40.3874 16.0982 39.6157C12.2186 38.844 8.65491 36.9392 5.85786 34.1421C3.06081 31.3451 1.156 27.7814 0.384294 23.9018C-0.38741 20.0222 0.00865672 16.0009 1.52241 12.3463C3.03616 8.69181 5.59961 5.56824 8.8886 3.37061C12.1776 1.17298 16.0444 -4.71704e-08 20 0L20 3.37385C16.7117 3.37385 13.4972 4.34896 10.763 6.17586C8.02885 8.00277 5.89784 10.5994 4.63944 13.6374C3.38105 16.6755 3.0518 20.0184 3.69332 23.2436C4.33484 26.4688 5.91833 29.4313 8.24354 31.7565C10.5687 34.0817 13.5312 35.6652 16.7564 36.3067C19.9816 36.9482 23.3245 36.6189 26.3626 35.3606C29.4006 34.1022 31.9972 31.9711 33.8241 29.237C35.651 26.5028 36.6261 23.2883 36.6261 20H40Z" stroke="#D2D2D2" stroke-width="4" mask="url(#path-1-inside-1_21_2)"/>
</svg>
