<svg width="57" height="57" viewBox="0 0 57 57" fill="none" xmlns="http://www.w3.org/2000/svg">
<path d="M38.0965 5.38292C41.04 5.38292 43.6974 6.79855 45.5695 9.07132C47.8985 8.5416 50.0939 7.57638 52.0667 6.23952C51.3034 8.96356 49.6798 11.2488 47.5682 12.6946C49.6344 12.4088 51.6125 11.7848 53.4481 10.8521C52.0721 13.1908 50.3398 15.25 48.3395 16.8957C48.3582 17.395 48.3689 17.8996 48.3689 18.4021C48.3689 33.8257 38.0706 51.6151 19.2393 51.6151C13.4591 51.6151 8.07527 49.6764 3.54738 46.3662C4.3574 46.4769 5.17222 46.5321 5.9877 46.5315C10.7837 46.5315 15.2003 44.667 18.7049 41.5327C14.2224 41.4427 10.439 38.0644 9.14134 33.4299C9.77687 33.5698 10.4221 33.6403 11.0687 33.6403C11.9994 33.6403 12.906 33.499 13.7628 33.231C9.07989 32.1621 5.55034 27.4438 5.55034 21.7854V21.6357C6.9317 22.5109 8.509 23.0364 10.1896 23.0972C7.44114 21.0012 5.63406 17.4336 5.63406 13.3831C5.63406 11.2423 6.13999 9.23646 7.02082 7.51854C12.0689 14.5766 19.6125 19.2247 28.1224 19.7136C27.9469 18.8614 27.8561 17.9611 27.8561 17.0556C27.8561 10.6079 32.4401 5.38292 38.0965 5.38292ZM38.0963 1.19568C31.1013 1.19568 25.3062 7.20271 24.4137 14.9642C18.6906 13.6127 13.4858 10.0513 9.74602 4.82631C9.41171 4.35884 8.99445 3.983 8.5235 3.72513C8.05255 3.46726 7.53931 3.3336 7.01976 3.33353C6.92646 3.33356 6.83319 3.33775 6.74016 3.34609C6.17548 3.39925 5.62967 3.60965 5.14787 3.95989C4.66607 4.31014 4.26212 4.79016 3.96943 5.36028C2.72743 7.78262 2.07121 10.5574 2.07145 13.3856C2.07145 15.2731 2.35996 17.1114 2.90686 18.8304C2.32439 19.5915 1.98862 20.5871 1.98862 21.6381V21.7878C1.98862 25.8896 3.3682 29.6959 5.65889 32.5487C5.52708 33.2668 5.55647 34.0185 5.75775 34.7387C6.54779 37.5642 7.98615 39.9993 9.85112 41.8542C8.59884 42.1819 7.3066 42.3474 5.98753 42.3474C5.29017 42.3474 4.61151 42.3023 3.96937 42.2101C3.82687 42.1892 3.68615 42.1819 3.54455 42.1819C2.0483 42.1819 0.690092 43.2905 0.185998 44.9812C-0.36708 46.8342 0.246617 48.8882 1.66444 49.9256C6.9263 53.774 13.0039 55.8059 19.2382 55.8059C39.5018 55.8059 51.6908 37.16 51.9277 18.9465C53.5905 17.3295 55.0595 15.4553 56.2945 13.375C56.7635 12.6512 57.017 11.7661 57.0159 10.8562C57.0159 9.43144 56.4094 8.17205 55.4859 7.4151C55.8857 5.80396 55.4297 4.05986 54.3164 2.99414C53.6662 2.3723 52.8691 2.05614 52.0676 2.05614C51.4428 2.05546 50.829 2.24866 50.2881 2.61622C49.1107 3.41401 47.8514 4.04527 46.5252 4.49968C44.1258 2.37767 41.1511 1.19574 38.0963 1.19568Z" fill="white"/>
<path d="M53.448 10.8542H53.4569M38.0965 5.38292C41.04 5.38292 43.6974 6.79855 45.5695 9.07132C47.8985 8.5416 50.0939 7.57638 52.0667 6.23952C51.3034 8.96356 49.6798 11.2488 47.5682 12.6946C49.6344 12.4088 51.6125 11.7848 53.4481 10.8521C52.0721 13.1908 50.3398 15.25 48.3395 16.8957C48.3582 17.395 48.3689 17.8996 48.3689 18.402C48.3689 33.8257 38.0706 51.6151 19.2393 51.6151C13.4591 51.6151 8.07527 49.6764 3.54738 46.3662C4.3574 46.4769 5.17222 46.5321 5.9877 46.5315C10.7837 46.5315 15.2003 44.667 18.7049 41.5327C14.2224 41.4427 10.439 38.0644 9.14134 33.4299C9.77687 33.5698 10.4221 33.6403 11.0687 33.6403C11.9994 33.6403 12.906 33.499 13.7628 33.231C9.07989 32.1621 5.55034 27.4438 5.55034 21.7854V21.6357C6.9317 22.5109 8.509 23.0364 10.1896 23.0972C7.44114 21.0012 5.63406 17.4336 5.63406 13.3831C5.63406 11.2423 6.13999 9.23646 7.02082 7.51854C12.0689 14.5766 19.6125 19.2247 28.1224 19.7136C27.9469 18.8614 27.8561 17.9611 27.8561 17.0556C27.8561 10.6079 32.4401 5.38292 38.0965 5.38292ZM38.0963 1.19568C31.1013 1.19568 25.3062 7.20271 24.4137 14.9642C18.6906 13.6127 13.4858 10.0513 9.74602 4.82631C9.41171 4.35884 8.99445 3.983 8.5235 3.72513C8.05255 3.46726 7.53931 3.3336 7.01976 3.33353C6.92646 3.33356 6.83319 3.33775 6.74016 3.34609C6.17548 3.39925 5.62967 3.60965 5.14787 3.95989C4.66607 4.31014 4.26212 4.79016 3.96943 5.36028C2.72743 7.78262 2.07121 10.5574 2.07145 13.3856C2.07145 15.2731 2.35996 17.1114 2.90686 18.8304C2.32439 19.5915 1.98862 20.5871 1.98862 21.6381V21.7878C1.98862 25.8896 3.3682 29.6959 5.65889 32.5487C5.52708 33.2668 5.55647 34.0185 5.75775 34.7387C6.54779 37.5642 7.98615 39.9993 9.85112 41.8542C8.59884 42.1819 7.3066 42.3474 5.98753 42.3474C5.29017 42.3474 4.61151 42.3023 3.96937 42.2101C3.82687 42.1892 3.68615 42.1819 3.54455 42.1819C2.0483 42.1819 0.690092 43.2905 0.185998 44.9812C-0.36708 46.8342 0.246617 48.8882 1.66444 49.9256C6.9263 53.774 13.0039 55.8059 19.2382 55.8059C39.5018 55.8059 51.6908 37.16 51.9277 18.9465C53.5905 17.3295 55.0595 15.4553 56.2945 13.375C56.7635 12.6512 57.017 11.7661 57.0159 10.8562C57.0159 9.43144 56.4094 8.17205 55.4859 7.4151C55.8857 5.80396 55.4297 4.05986 54.3164 2.99414C53.6662 2.3723 52.8691 2.05614 52.0676 2.05614C51.4428 2.05546 50.829 2.24866 50.2881 2.61622C49.1107 3.41401 47.8514 4.04527 46.5252 4.49968C44.1258 2.37767 41.1511 1.19574 38.0963 1.19568Z" stroke="white" stroke-width="0.78125"/>
</svg>
